<mxfile host="app.diagrams.net" modified="2024-04-25T13:18:27.387Z" agent="Mozilla/5.0 (Windows NT 10.0; Win64; x64; rv:109.0) Gecko/20100101 Firefox/115.0" etag="DCGRlTxKN4Yn-465WcCE" version="24.3.0" type="device" pages="3">
  <diagram id="5My9Dnoa8cWGaW5Ns8pS" name="schéma simplifié">
    <mxGraphModel dx="1050" dy="511" grid="1" gridSize="10" guides="1" tooltips="1" connect="1" arrows="1" fold="1" page="1" pageScale="1" pageWidth="827" pageHeight="1169" math="0" shadow="0">
      <root>
        <mxCell id="0" />
        <mxCell id="1" parent="0" />
        <mxCell id="6fRFTTkgYb_IorAgwNaO-18" style="edgeStyle=orthogonalEdgeStyle;rounded=0;orthogonalLoop=1;jettySize=auto;html=1;exitX=1;exitY=0.5;exitDx=0;exitDy=0;entryX=1.002;entryY=0.366;entryDx=0;entryDy=0;entryPerimeter=0;" parent="1" source="6fRFTTkgYb_IorAgwNaO-17" target="6fRFTTkgYb_IorAgwNaO-15" edge="1">
          <mxGeometry relative="1" as="geometry">
            <Array as="points">
              <mxPoint x="890" y="110" />
              <mxPoint x="890" y="304" />
            </Array>
          </mxGeometry>
        </mxCell>
        <mxCell id="6fRFTTkgYb_IorAgwNaO-17" value="&lt;div align=&quot;left&quot;&gt;&lt;font style=&quot;font-size: 15px&quot;&gt;&lt;b&gt;PUBLISHER&lt;/b&gt;&lt;/font&gt;&lt;/div&gt;" style="rounded=0;whiteSpace=wrap;html=1;fillColor=#f5f5f5;strokeColor=#666666;fontColor=#333333;align=left;verticalAlign=top;" parent="1" vertex="1">
          <mxGeometry x="20" y="10" width="810" height="200" as="geometry" />
        </mxCell>
        <mxCell id="6fRFTTkgYb_IorAgwNaO-15" value="&lt;div align=&quot;left&quot;&gt;&lt;font style=&quot;font-size: 15px&quot;&gt;&lt;b&gt;SUSCRIBER&lt;/b&gt;&lt;/font&gt;&lt;/div&gt;" style="rounded=0;whiteSpace=wrap;html=1;fillColor=#f5f5f5;strokeColor=#666666;fontColor=#333333;align=left;verticalAlign=top;" parent="1" vertex="1">
          <mxGeometry x="20" y="220" width="810" height="230" as="geometry" />
        </mxCell>
        <mxCell id="7iEgPXAXFmDGBgqWLZ2u-3" style="edgeStyle=orthogonalEdgeStyle;rounded=0;orthogonalLoop=1;jettySize=auto;html=1;exitX=1;exitY=0.25;exitDx=0;exitDy=0;" parent="1" source="7iEgPXAXFmDGBgqWLZ2u-1" edge="1">
          <mxGeometry relative="1" as="geometry">
            <mxPoint x="405" y="80" as="targetPoint" />
            <Array as="points" />
            <mxPoint x="335" y="80" as="sourcePoint" />
          </mxGeometry>
        </mxCell>
        <mxCell id="7iEgPXAXFmDGBgqWLZ2u-7" style="edgeStyle=orthogonalEdgeStyle;rounded=0;orthogonalLoop=1;jettySize=auto;html=1;exitX=0.994;exitY=0.825;exitDx=0;exitDy=0;entryX=0;entryY=0.5;entryDx=0;entryDy=0;exitPerimeter=0;" parent="1" source="7iEgPXAXFmDGBgqWLZ2u-1" target="7iEgPXAXFmDGBgqWLZ2u-6" edge="1">
          <mxGeometry relative="1" as="geometry">
            <mxPoint x="339.25" y="149.96000000000004" as="sourcePoint" />
          </mxGeometry>
        </mxCell>
        <mxCell id="7iEgPXAXFmDGBgqWLZ2u-1" value="&lt;div&gt;&lt;b&gt;SERVICE&lt;/b&gt;&lt;/div&gt;&lt;div&gt;@Transactional&lt;br&gt;&lt;/div&gt;" style="rounded=0;whiteSpace=wrap;html=1;verticalAlign=top;labelPosition=center;verticalLabelPosition=middle;align=left;comic=1;fillColor=#dae8fc;strokeColor=#6c8ebf;" parent="1" vertex="1">
          <mxGeometry x="120" y="50" width="170" height="120" as="geometry" />
        </mxCell>
        <mxCell id="7iEgPXAXFmDGBgqWLZ2u-4" value="Publish " style="text;html=1;align=center;verticalAlign=middle;resizable=0;points=[];autosize=1;" parent="1" vertex="1">
          <mxGeometry x="330" y="60" width="60" height="20" as="geometry" />
        </mxCell>
        <mxCell id="7iEgPXAXFmDGBgqWLZ2u-5" value="&lt;div align=&quot;center&quot;&gt;Custom&lt;/div&gt;&lt;div align=&quot;center&quot;&gt;Event&lt;/div&gt;" style="rounded=0;whiteSpace=wrap;html=1;comic=1;align=center;" parent="1" vertex="1">
          <mxGeometry x="405" y="60" width="70" height="40" as="geometry" />
        </mxCell>
        <mxCell id="7iEgPXAXFmDGBgqWLZ2u-6" value="Entities" style="rounded=0;whiteSpace=wrap;html=1;comic=1;align=center;" parent="1" vertex="1">
          <mxGeometry x="405" y="130" width="70" height="40" as="geometry" />
        </mxCell>
        <mxCell id="7iEgPXAXFmDGBgqWLZ2u-8" value="Commit" style="text;html=1;align=center;verticalAlign=middle;resizable=0;points=[];autosize=1;" parent="1" vertex="1">
          <mxGeometry x="330" y="130" width="60" height="20" as="geometry" />
        </mxCell>
        <mxCell id="6fRFTTkgYb_IorAgwNaO-1" value="&lt;div&gt;&lt;b&gt;SERVICE&lt;/b&gt;&lt;/div&gt;&lt;div&gt;@TransactionalEventListener&lt;/div&gt;&lt;div&gt;phase &lt;font color=&quot;#00994D&quot;&gt;&lt;b&gt;AFTER_COMMIT&lt;/b&gt;&lt;/font&gt;&lt;/div&gt;&lt;div&gt;&lt;br&gt;&lt;/div&gt;&lt;div&gt;handler()&lt;/div&gt;" style="rounded=0;whiteSpace=wrap;html=1;verticalAlign=top;labelPosition=center;verticalLabelPosition=middle;align=left;comic=1;fillColor=#dae8fc;strokeColor=#6c8ebf;" parent="1" vertex="1">
          <mxGeometry x="120" y="320" width="170" height="120" as="geometry" />
        </mxCell>
        <mxCell id="6fRFTTkgYb_IorAgwNaO-7" value="1" style="ellipse;whiteSpace=wrap;html=1;aspect=fixed;fillColor=#d5e8d4;strokeColor=#82b366;" parent="1" vertex="1">
          <mxGeometry x="300" y="40" width="30" height="30" as="geometry" />
        </mxCell>
        <mxCell id="6fRFTTkgYb_IorAgwNaO-8" value="&lt;div&gt;2&lt;/div&gt;" style="ellipse;whiteSpace=wrap;html=1;aspect=fixed;fillColor=#d5e8d4;strokeColor=#82b366;" parent="1" vertex="1">
          <mxGeometry x="300" y="110" width="30" height="30" as="geometry" />
        </mxCell>
        <mxCell id="6fRFTTkgYb_IorAgwNaO-9" value="&lt;div&gt;&lt;b&gt;SERVICE&lt;/b&gt;&lt;/div&gt;&lt;div&gt;@TransactionalEventListener&lt;/div&gt;&lt;div&gt;phase &lt;font color=&quot;#00994D&quot;&gt;&lt;b&gt;BEFORE_COMMIT&lt;/b&gt;&lt;/font&gt;&lt;/div&gt;&lt;div&gt;&lt;br&gt;&lt;/div&gt;&lt;div&gt;&lt;div&gt;handler()&lt;/div&gt;&lt;/div&gt;" style="rounded=0;whiteSpace=wrap;html=1;verticalAlign=top;labelPosition=center;verticalLabelPosition=middle;align=left;comic=1;fillColor=#dae8fc;strokeColor=#6c8ebf;" parent="1" vertex="1">
          <mxGeometry x="390" y="320" width="170" height="120" as="geometry" />
        </mxCell>
        <mxCell id="6fRFTTkgYb_IorAgwNaO-10" value="&lt;div&gt;&lt;b&gt;SERVICE&lt;/b&gt;&lt;/div&gt;&lt;div&gt;@TransactionalEventListener&lt;/div&gt;&lt;div&gt;phase &lt;b&gt;&lt;font color=&quot;#00994D&quot;&gt;AFTER_ROLLBACK&lt;/font&gt;&lt;/b&gt;&lt;/div&gt;&lt;div&gt;&lt;br&gt;&lt;/div&gt;&lt;div&gt;&lt;div&gt;handler()&lt;/div&gt;&lt;/div&gt;" style="rounded=0;whiteSpace=wrap;html=1;verticalAlign=top;labelPosition=center;verticalLabelPosition=middle;align=left;comic=1;fillColor=#dae8fc;strokeColor=#6c8ebf;" parent="1" vertex="1">
          <mxGeometry x="640" y="320" width="170" height="120" as="geometry" />
        </mxCell>
        <mxCell id="6fRFTTkgYb_IorAgwNaO-11" value="&lt;div&gt;1,5&lt;br&gt;&lt;/div&gt;" style="ellipse;whiteSpace=wrap;html=1;aspect=fixed;fillColor=#d5e8d4;strokeColor=#82b366;" parent="1" vertex="1">
          <mxGeometry x="120" y="280" width="30" height="30" as="geometry" />
        </mxCell>
        <mxCell id="6fRFTTkgYb_IorAgwNaO-12" value="&lt;div&gt;3&lt;br&gt;&lt;/div&gt;" style="ellipse;whiteSpace=wrap;html=1;aspect=fixed;fillColor=#d5e8d4;strokeColor=#82b366;" parent="1" vertex="1">
          <mxGeometry x="390" y="280" width="30" height="30" as="geometry" />
        </mxCell>
        <mxCell id="6fRFTTkgYb_IorAgwNaO-13" value="&lt;div&gt;3&lt;/div&gt;" style="ellipse;whiteSpace=wrap;html=1;aspect=fixed;fillColor=#d5e8d4;strokeColor=#82b366;" parent="1" vertex="1">
          <mxGeometry x="640" y="280" width="30" height="30" as="geometry" />
        </mxCell>
        <mxCell id="6fRFTTkgYb_IorAgwNaO-19" value="&lt;b&gt;&lt;font style=&quot;font-size: 14px&quot;&gt;LISTENER&lt;/font&gt;&lt;/b&gt;" style="text;html=1;align=center;verticalAlign=middle;resizable=0;points=[];autosize=1;" parent="1" vertex="1">
          <mxGeometry x="890" y="200" width="80" height="20" as="geometry" />
        </mxCell>
      </root>
    </mxGraphModel>
  </diagram>
  <diagram id="5aIdGscZxG9Mw_xRE3N1" name="schéma commons">
    <mxGraphModel dx="1877" dy="1680" grid="1" gridSize="10" guides="1" tooltips="1" connect="1" arrows="1" fold="1" page="1" pageScale="1" pageWidth="827" pageHeight="1169" math="0" shadow="0">
      <root>
        <mxCell id="Co6emxiKnrxvNXTTKmmr-0" />
        <mxCell id="Co6emxiKnrxvNXTTKmmr-1" parent="Co6emxiKnrxvNXTTKmmr-0" />
        <mxCell id="OpwPwvEnd3jWnngs8sU8-46" value="Ce sont les développeurs qui gèrent" style="html=1;fontSize=27;align=left;verticalAlign=top;fillColor=#f8cecc;strokeColor=#b85450;comic=1;" parent="Co6emxiKnrxvNXTTKmmr-1" vertex="1">
          <mxGeometry x="-630" y="-140" width="1640" height="1000" as="geometry" />
        </mxCell>
        <mxCell id="OpwPwvEnd3jWnngs8sU8-66" value="Projet Git 2" style="html=1;startSize=26;strokeColor=#6c8ebf;fillColor=#dae8fc;fontSize=24;align=left;verticalAlign=top;" parent="Co6emxiKnrxvNXTTKmmr-1" vertex="1">
          <mxGeometry x="50" y="-100" width="930" height="950" as="geometry" />
        </mxCell>
        <mxCell id="OpwPwvEnd3jWnngs8sU8-47" value="" style="group;comic=1;" parent="Co6emxiKnrxvNXTTKmmr-1" vertex="1" connectable="0">
          <mxGeometry x="500" y="450" width="450" height="390" as="geometry" />
        </mxCell>
        <mxCell id="OpwPwvEnd3jWnngs8sU8-44" value="&lt;div style=&quot;font-size: 24px;&quot; align=&quot;left&quot;&gt;C&#39;est Spring qui gère&lt;br style=&quot;font-size: 24px;&quot;&gt;&lt;/div&gt;" style="html=1;fontSize=24;align=left;verticalAlign=top;fillColor=#d5e8d4;strokeColor=#82b366;comic=1;" parent="OpwPwvEnd3jWnngs8sU8-47" vertex="1">
          <mxGeometry width="450" height="390" as="geometry" />
        </mxCell>
        <mxCell id="OpwPwvEnd3jWnngs8sU8-43" value="" style="group;comic=1;" parent="OpwPwvEnd3jWnngs8sU8-47" vertex="1" connectable="0">
          <mxGeometry x="40" y="50" width="400" height="309" as="geometry" />
        </mxCell>
        <mxCell id="OpwPwvEnd3jWnngs8sU8-3" value="subscriber" style="rounded=0;whiteSpace=wrap;html=1;fontSize=14;align=center;verticalAlign=top;fillColor=#fff2cc;strokeColor=#d6b656;comic=1;" parent="OpwPwvEnd3jWnngs8sU8-43" vertex="1">
          <mxGeometry width="400" height="309" as="geometry" />
        </mxCell>
        <mxCell id="OpwPwvEnd3jWnngs8sU8-9" value="EventSubscriberService" style="swimlane;fontStyle=1;align=center;verticalAlign=top;childLayout=stackLayout;horizontal=1;startSize=26;horizontalStack=0;resizeParent=1;resizeParentMax=0;resizeLast=0;collapsible=1;marginBottom=0;fontSize=14;fillColor=#dae8fc;strokeColor=#6c8ebf;comic=1;" parent="OpwPwvEnd3jWnngs8sU8-43" vertex="1">
          <mxGeometry x="30" y="53" width="340" height="182" as="geometry" />
        </mxCell>
        <mxCell id="OpwPwvEnd3jWnngs8sU8-12" value="+ handler(ConsumerSpringEvent event): void" style="text;strokeColor=#9673a6;fillColor=#e1d5e7;align=left;verticalAlign=top;spacingLeft=4;spacingRight=4;overflow=hidden;rotatable=0;points=[[0,0.5],[1,0.5]];portConstraint=eastwest;comic=1;" parent="OpwPwvEnd3jWnngs8sU8-9" vertex="1">
          <mxGeometry y="26" width="340" height="26" as="geometry" />
        </mxCell>
        <mxCell id="OpwPwvEnd3jWnngs8sU8-13" value="+ handler(FunctionSpringEvent event): void" style="text;strokeColor=#9673a6;fillColor=#e1d5e7;align=left;verticalAlign=top;spacingLeft=4;spacingRight=4;overflow=hidden;rotatable=0;points=[[0,0.5],[1,0.5]];portConstraint=eastwest;comic=1;" parent="OpwPwvEnd3jWnngs8sU8-9" vertex="1">
          <mxGeometry y="52" width="340" height="26" as="geometry" />
        </mxCell>
        <mxCell id="OpwPwvEnd3jWnngs8sU8-14" value="+ handler(SupplierSpringEvent event): Object" style="text;strokeColor=#9673a6;fillColor=#e1d5e7;align=left;verticalAlign=top;spacingLeft=4;spacingRight=4;overflow=hidden;rotatable=0;points=[[0,0.5],[1,0.5]];portConstraint=eastwest;comic=1;" parent="OpwPwvEnd3jWnngs8sU8-9" vertex="1">
          <mxGeometry y="78" width="340" height="26" as="geometry" />
        </mxCell>
        <mxCell id="OpwPwvEnd3jWnngs8sU8-15" value="- executeTask(ConsumerSpringTask event): void" style="text;strokeColor=#9673a6;fillColor=#e1d5e7;align=left;verticalAlign=top;spacingLeft=4;spacingRight=4;overflow=hidden;rotatable=0;points=[[0,0.5],[1,0.5]];portConstraint=eastwest;comic=1;" parent="OpwPwvEnd3jWnngs8sU8-9" vertex="1">
          <mxGeometry y="104" width="340" height="26" as="geometry" />
        </mxCell>
        <mxCell id="OpwPwvEnd3jWnngs8sU8-16" value="- executeTask(FunctionSpringTask event): T" style="text;strokeColor=#9673a6;fillColor=#e1d5e7;align=left;verticalAlign=top;spacingLeft=4;spacingRight=4;overflow=hidden;rotatable=0;points=[[0,0.5],[1,0.5]];portConstraint=eastwest;comic=1;" parent="OpwPwvEnd3jWnngs8sU8-9" vertex="1">
          <mxGeometry y="130" width="340" height="26" as="geometry" />
        </mxCell>
        <mxCell id="OpwPwvEnd3jWnngs8sU8-18" value="- executeTask(SupplierSpringTask event): T" style="text;strokeColor=#9673a6;fillColor=#e1d5e7;align=left;verticalAlign=top;spacingLeft=4;spacingRight=4;overflow=hidden;rotatable=0;points=[[0,0.5],[1,0.5]];portConstraint=eastwest;comic=1;" parent="OpwPwvEnd3jWnngs8sU8-9" vertex="1">
          <mxGeometry y="156" width="340" height="26" as="geometry" />
        </mxCell>
        <mxCell id="OpwPwvEnd3jWnngs8sU8-45" value="" style="group;comic=1;" parent="Co6emxiKnrxvNXTTKmmr-1" vertex="1" connectable="0">
          <mxGeometry x="80" y="470" width="400" height="260" as="geometry" />
        </mxCell>
        <mxCell id="OpwPwvEnd3jWnngs8sU8-42" value="" style="group;comic=1;" parent="OpwPwvEnd3jWnngs8sU8-45" vertex="1" connectable="0">
          <mxGeometry y="-10" width="400" height="270" as="geometry" />
        </mxCell>
        <mxCell id="OpwPwvEnd3jWnngs8sU8-1" value="&lt;div&gt;publisher&lt;/div&gt;" style="rounded=0;whiteSpace=wrap;html=1;fontSize=14;align=center;verticalAlign=top;fillColor=#fff2cc;strokeColor=#d6b656;comic=1;" parent="OpwPwvEnd3jWnngs8sU8-42" vertex="1">
          <mxGeometry width="400" height="180" as="geometry" />
        </mxCell>
        <mxCell id="OpwPwvEnd3jWnngs8sU8-5" value="EventPublisherService" style="swimlane;fontStyle=1;align=center;verticalAlign=top;childLayout=stackLayout;horizontal=1;startSize=26;horizontalStack=0;resizeParent=1;resizeParentMax=0;resizeLast=0;collapsible=1;marginBottom=0;fontSize=14;fillColor=#dae8fc;strokeColor=#6c8ebf;comic=1;" parent="OpwPwvEnd3jWnngs8sU8-42" vertex="1">
          <mxGeometry x="60" y="55.03846153846154" width="270" height="80" as="geometry" />
        </mxCell>
        <mxCell id="OpwPwvEnd3jWnngs8sU8-6" value="+ eventPublisher: ApplicationEventPublisher" style="text;strokeColor=#666666;fillColor=#f5f5f5;align=left;verticalAlign=top;spacingLeft=4;spacingRight=4;overflow=hidden;rotatable=0;points=[[0,0.5],[1,0.5]];portConstraint=eastwest;fontStyle=0;fontColor=#333333;comic=1;" parent="OpwPwvEnd3jWnngs8sU8-5" vertex="1">
          <mxGeometry y="26" width="270" height="27.000000000000004" as="geometry" />
        </mxCell>
        <mxCell id="OpwPwvEnd3jWnngs8sU8-8" value="+ publish(AbstractSpringEvent event): void" style="text;strokeColor=#9673a6;fillColor=#e1d5e7;align=left;verticalAlign=top;spacingLeft=4;spacingRight=4;overflow=hidden;rotatable=0;points=[[0,0.5],[1,0.5]];portConstraint=eastwest;comic=1;" parent="OpwPwvEnd3jWnngs8sU8-5" vertex="1">
          <mxGeometry y="53" width="270" height="27.000000000000004" as="geometry" />
        </mxCell>
        <mxCell id="OpwPwvEnd3jWnngs8sU8-41" value="" style="group;comic=1;" parent="Co6emxiKnrxvNXTTKmmr-1" vertex="1" connectable="0">
          <mxGeometry x="80" y="-40" width="870" height="550" as="geometry" />
        </mxCell>
        <mxCell id="OpwPwvEnd3jWnngs8sU8-20" value="event" style="rounded=0;whiteSpace=wrap;html=1;fontSize=14;align=center;verticalAlign=top;fillColor=#fff2cc;strokeColor=#d6b656;comic=1;" parent="OpwPwvEnd3jWnngs8sU8-41" vertex="1">
          <mxGeometry y="20" width="870" height="450" as="geometry" />
        </mxCell>
        <mxCell id="OpwPwvEnd3jWnngs8sU8-21" value="&lt;div align=&quot;center&quot;&gt;commons&lt;/div&gt;" style="rounded=0;whiteSpace=wrap;html=1;fontSize=14;align=center;verticalAlign=top;comic=1;" parent="OpwPwvEnd3jWnngs8sU8-41" vertex="1">
          <mxGeometry x="22.894736842105267" y="80" width="824.2105263157896" height="210" as="geometry" />
        </mxCell>
        <mxCell id="OpwPwvEnd3jWnngs8sU8-28" value="ConsumerSpringEvent" style="swimlane;fontStyle=1;align=center;verticalAlign=top;childLayout=stackLayout;horizontal=1;startSize=31;horizontalStack=0;resizeParent=1;resizeParentMax=0;resizeLast=0;collapsible=1;marginBottom=0;fontSize=14;fillColor=#dae8fc;strokeColor=#6c8ebf;comic=1;" parent="OpwPwvEnd3jWnngs8sU8-41" vertex="1">
          <mxGeometry x="57.236842105263165" y="350" width="228.94736842105266" height="83" as="geometry" />
        </mxCell>
        <mxCell id="OpwPwvEnd3jWnngs8sU8-29" value="task: Consumer" style="text;strokeColor=#666666;fillColor=#f5f5f5;align=left;verticalAlign=top;spacingLeft=4;spacingRight=4;overflow=hidden;rotatable=0;points=[[0,0.5],[1,0.5]];portConstraint=eastwest;fontColor=#333333;comic=1;" parent="OpwPwvEnd3jWnngs8sU8-28" vertex="1">
          <mxGeometry y="31" width="228.94736842105266" height="26" as="geometry" />
        </mxCell>
        <mxCell id="OpwPwvEnd3jWnngs8sU8-30" value="data: SpringEventData" style="text;strokeColor=#666666;fillColor=#f5f5f5;align=left;verticalAlign=top;spacingLeft=4;spacingRight=4;overflow=hidden;rotatable=0;points=[[0,0.5],[1,0.5]];portConstraint=eastwest;fontColor=#333333;comic=1;" parent="OpwPwvEnd3jWnngs8sU8-28" vertex="1">
          <mxGeometry y="57" width="228.94736842105266" height="26" as="geometry" />
        </mxCell>
        <mxCell id="OpwPwvEnd3jWnngs8sU8-33" value="FunctionSpringEvent" style="swimlane;fontStyle=1;align=center;verticalAlign=top;childLayout=stackLayout;horizontal=1;startSize=31;horizontalStack=0;resizeParent=1;resizeParentMax=0;resizeLast=0;collapsible=1;marginBottom=0;fontSize=14;fillColor=#dae8fc;strokeColor=#6c8ebf;comic=1;" parent="OpwPwvEnd3jWnngs8sU8-41" vertex="1">
          <mxGeometry x="320.5263157894737" y="350" width="228.94736842105266" height="83" as="geometry" />
        </mxCell>
        <mxCell id="OpwPwvEnd3jWnngs8sU8-34" value="task: Function" style="text;strokeColor=#666666;fillColor=#f5f5f5;align=left;verticalAlign=top;spacingLeft=4;spacingRight=4;overflow=hidden;rotatable=0;points=[[0,0.5],[1,0.5]];portConstraint=eastwest;fontColor=#333333;comic=1;" parent="OpwPwvEnd3jWnngs8sU8-33" vertex="1">
          <mxGeometry y="31" width="228.94736842105266" height="26" as="geometry" />
        </mxCell>
        <mxCell id="OpwPwvEnd3jWnngs8sU8-35" value="data: SpringEventData" style="text;strokeColor=#666666;fillColor=#f5f5f5;align=left;verticalAlign=top;spacingLeft=4;spacingRight=4;overflow=hidden;rotatable=0;points=[[0,0.5],[1,0.5]];portConstraint=eastwest;fontColor=#333333;comic=1;" parent="OpwPwvEnd3jWnngs8sU8-33" vertex="1">
          <mxGeometry y="57" width="228.94736842105266" height="26" as="geometry" />
        </mxCell>
        <mxCell id="OpwPwvEnd3jWnngs8sU8-37" value="SupplierSpringEvent" style="swimlane;fontStyle=1;align=center;verticalAlign=top;childLayout=stackLayout;horizontal=1;startSize=31;horizontalStack=0;resizeParent=1;resizeParentMax=0;resizeLast=0;collapsible=1;marginBottom=0;fontSize=14;fillColor=#dae8fc;strokeColor=#6c8ebf;comic=1;" parent="OpwPwvEnd3jWnngs8sU8-41" vertex="1">
          <mxGeometry x="583.8157894736843" y="350" width="228.94736842105266" height="57" as="geometry" />
        </mxCell>
        <mxCell id="OpwPwvEnd3jWnngs8sU8-38" value="task: Supplier" style="text;strokeColor=#666666;fillColor=#f5f5f5;align=left;verticalAlign=top;spacingLeft=4;spacingRight=4;overflow=hidden;rotatable=0;points=[[0,0.5],[1,0.5]];portConstraint=eastwest;fontColor=#333333;comic=1;" parent="OpwPwvEnd3jWnngs8sU8-37" vertex="1">
          <mxGeometry y="31" width="228.94736842105266" height="26" as="geometry" />
        </mxCell>
        <mxCell id="OpwPwvEnd3jWnngs8sU8-26" value="AbstractSpringEvent" style="swimlane;fontStyle=3;align=center;verticalAlign=top;childLayout=stackLayout;horizontal=1;startSize=31;horizontalStack=0;resizeParent=1;resizeParentMax=0;resizeLast=0;collapsible=1;marginBottom=0;fontSize=14;fillColor=#dae8fc;strokeColor=#6c8ebf;comic=1;" parent="OpwPwvEnd3jWnngs8sU8-41" vertex="1">
          <mxGeometry x="320.5263157894737" y="210" width="228.94736842105266" height="57" as="geometry" />
        </mxCell>
        <mxCell id="OpwPwvEnd3jWnngs8sU8-27" value="readyToPublish: boolean" style="text;strokeColor=#666666;fillColor=#f5f5f5;align=left;verticalAlign=top;spacingLeft=4;spacingRight=4;overflow=hidden;rotatable=0;points=[[0,0.5],[1,0.5]];portConstraint=eastwest;fontColor=#333333;comic=1;" parent="OpwPwvEnd3jWnngs8sU8-26" vertex="1">
          <mxGeometry y="31" width="228.94736842105266" height="26" as="geometry" />
        </mxCell>
        <mxCell id="OpwPwvEnd3jWnngs8sU8-32" style="edgeStyle=orthogonalEdgeStyle;rounded=0;orthogonalLoop=1;jettySize=auto;html=1;exitX=0.5;exitY=0;exitDx=0;exitDy=0;fontSize=14;endArrow=block;endFill=0;comic=1;" parent="OpwPwvEnd3jWnngs8sU8-41" source="OpwPwvEnd3jWnngs8sU8-28" target="OpwPwvEnd3jWnngs8sU8-27" edge="1">
          <mxGeometry relative="1" as="geometry">
            <mxPoint x="286.18421052631584" y="269.9999999999999" as="targetPoint" />
          </mxGeometry>
        </mxCell>
        <mxCell id="OpwPwvEnd3jWnngs8sU8-36" style="edgeStyle=orthogonalEdgeStyle;rounded=0;orthogonalLoop=1;jettySize=auto;html=1;exitX=0.25;exitY=0;exitDx=0;exitDy=0;entryX=0.352;entryY=1;entryDx=0;entryDy=0;entryPerimeter=0;endArrow=block;endFill=0;fontSize=14;comic=1;" parent="OpwPwvEnd3jWnngs8sU8-41" source="OpwPwvEnd3jWnngs8sU8-33" target="OpwPwvEnd3jWnngs8sU8-27" edge="1">
          <mxGeometry relative="1" as="geometry" />
        </mxCell>
        <mxCell id="OpwPwvEnd3jWnngs8sU8-40" style="edgeStyle=orthogonalEdgeStyle;rounded=0;orthogonalLoop=1;jettySize=auto;html=1;exitX=0.5;exitY=0;exitDx=0;exitDy=0;entryX=1;entryY=0.5;entryDx=0;entryDy=0;endArrow=block;endFill=0;fontSize=14;comic=1;" parent="OpwPwvEnd3jWnngs8sU8-41" source="OpwPwvEnd3jWnngs8sU8-37" target="OpwPwvEnd3jWnngs8sU8-27" edge="1">
          <mxGeometry relative="1" as="geometry" />
        </mxCell>
        <mxCell id="OpwPwvEnd3jWnngs8sU8-22" value="&quot;interface&quot; &#xa;SpringEventData" style="swimlane;fontStyle=3;align=center;verticalAlign=top;childLayout=stackLayout;horizontal=1;startSize=50;horizontalStack=0;resizeParent=1;resizeParentMax=0;resizeLast=0;collapsible=1;marginBottom=0;fontSize=14;fillColor=#dae8fc;strokeColor=#6c8ebf;comic=1;" parent="OpwPwvEnd3jWnngs8sU8-41" vertex="1">
          <mxGeometry x="320.53" y="116.5" width="228.95" height="43.5" as="geometry" />
        </mxCell>
        <mxCell id="OpwPwvEnd3jWnngs8sU8-91" value="&lt;font style=&quot;font-size: 15px&quot;&gt;stockera les données&lt;br&gt;&lt;/font&gt;" style="shape=note;whiteSpace=wrap;html=1;size=14;verticalAlign=top;align=left;spacingTop=-6;startSize=26;strokeColor=#d79b00;fillColor=#ffe6cc;fontSize=27;" parent="OpwPwvEnd3jWnngs8sU8-41" vertex="1">
          <mxGeometry x="580" y="116.5" width="160" height="38" as="geometry" />
        </mxCell>
        <mxCell id="Szf7fjWrY__qaz3yzs8V-0" style="edgeStyle=orthogonalEdgeStyle;rounded=0;comic=1;jumpSize=12;orthogonalLoop=1;jettySize=auto;html=1;exitX=0;exitY=0.5;exitDx=0;exitDy=0;entryX=0;entryY=0.5;entryDx=0;entryDy=0;dashed=1;startSize=26;endArrow=diamondThin;endFill=0;strokeWidth=2;fontSize=27;" parent="OpwPwvEnd3jWnngs8sU8-41" source="OpwPwvEnd3jWnngs8sU8-30" target="OpwPwvEnd3jWnngs8sU8-22" edge="1">
          <mxGeometry relative="1" as="geometry" />
        </mxCell>
        <mxCell id="Szf7fjWrY__qaz3yzs8V-1" style="edgeStyle=orthogonalEdgeStyle;rounded=0;comic=1;jumpSize=12;orthogonalLoop=1;jettySize=auto;html=1;exitX=1;exitY=0.5;exitDx=0;exitDy=0;entryX=1;entryY=0.5;entryDx=0;entryDy=0;dashed=1;startSize=26;endArrow=diamondThin;endFill=0;strokeWidth=2;fontSize=27;" parent="OpwPwvEnd3jWnngs8sU8-41" source="OpwPwvEnd3jWnngs8sU8-35" target="OpwPwvEnd3jWnngs8sU8-22" edge="1">
          <mxGeometry relative="1" as="geometry" />
        </mxCell>
        <mxCell id="OpwPwvEnd3jWnngs8sU8-70" value="Projet Git 1" style="html=1;startSize=26;strokeColor=#6c8ebf;fillColor=#dae8fc;fontSize=24;align=left;verticalAlign=top;" parent="Co6emxiKnrxvNXTTKmmr-1" vertex="1">
          <mxGeometry x="-610" y="-100" width="630" height="620" as="geometry" />
        </mxCell>
        <mxCell id="OpwPwvEnd3jWnngs8sU8-68" value="" style="group" parent="Co6emxiKnrxvNXTTKmmr-1" vertex="1" connectable="0">
          <mxGeometry x="-600" y="-50" width="610" height="550" as="geometry" />
        </mxCell>
        <mxCell id="OpwPwvEnd3jWnngs8sU8-50" value="&lt;div&gt;microservice&lt;/div&gt;" style="rounded=0;whiteSpace=wrap;html=1;fontSize=14;align=center;verticalAlign=top;fillColor=#fff2cc;strokeColor=#d6b656;comic=1;" parent="OpwPwvEnd3jWnngs8sU8-68" vertex="1">
          <mxGeometry width="610" height="550" as="geometry" />
        </mxCell>
        <mxCell id="OpwPwvEnd3jWnngs8sU8-54" value="&lt;div&gt;&lt;div&gt;service&lt;/div&gt;&lt;/div&gt;" style="rounded=0;whiteSpace=wrap;html=1;fontSize=14;align=left;verticalAlign=top;comic=1;" parent="OpwPwvEnd3jWnngs8sU8-68" vertex="1">
          <mxGeometry x="15.25" y="30" width="574.75" height="150" as="geometry" />
        </mxCell>
        <mxCell id="OpwPwvEnd3jWnngs8sU8-64" value="&lt;div&gt;&lt;div&gt;&lt;b&gt;transactionevent&lt;/b&gt;&lt;/div&gt;&lt;/div&gt;" style="rounded=0;whiteSpace=wrap;html=1;fontSize=14;align=left;verticalAlign=top;comic=1;" parent="OpwPwvEnd3jWnngs8sU8-68" vertex="1">
          <mxGeometry x="15.25" y="220" width="574.75" height="190" as="geometry" />
        </mxCell>
        <mxCell id="OpwPwvEnd3jWnngs8sU8-51" value="ProductOrderOlivEventService" style="swimlane;fontStyle=1;align=center;verticalAlign=top;childLayout=stackLayout;horizontal=1;startSize=26;horizontalStack=0;resizeParent=1;resizeParentMax=0;resizeLast=0;collapsible=1;marginBottom=0;fontSize=14;fillColor=#dae8fc;strokeColor=#6c8ebf;comic=1;" parent="Co6emxiKnrxvNXTTKmmr-1" vertex="1">
          <mxGeometry x="-540" y="30" width="270" height="78" as="geometry" />
        </mxCell>
        <mxCell id="OpwPwvEnd3jWnngs8sU8-52" value="+ eventPublisher: ApplicationEventPublisher" style="text;strokeColor=#666666;fillColor=#f5f5f5;align=left;verticalAlign=top;spacingLeft=4;spacingRight=4;overflow=hidden;rotatable=0;points=[[0,0.5],[1,0.5]];portConstraint=eastwest;fontStyle=0;fontColor=#333333;comic=1;" parent="OpwPwvEnd3jWnngs8sU8-51" vertex="1">
          <mxGeometry y="26" width="270" height="26" as="geometry" />
        </mxCell>
        <mxCell id="OpwPwvEnd3jWnngs8sU8-53" value="+ publish(AbstractSpringEvent event): void" style="text;strokeColor=#9673a6;fillColor=#e1d5e7;align=left;verticalAlign=top;spacingLeft=4;spacingRight=4;overflow=hidden;rotatable=0;points=[[0,0.5],[1,0.5]];portConstraint=eastwest;comic=1;" parent="OpwPwvEnd3jWnngs8sU8-51" vertex="1">
          <mxGeometry y="52" width="270" height="26" as="geometry" />
        </mxCell>
        <mxCell id="OpwPwvEnd3jWnngs8sU8-79" value="ExampleEventService" style="swimlane;fontStyle=1;align=center;verticalAlign=top;childLayout=stackLayout;horizontal=1;startSize=26;horizontalStack=0;resizeParent=1;resizeParentMax=0;resizeLast=0;collapsible=1;marginBottom=0;fontSize=14;fillColor=#dae8fc;strokeColor=#6c8ebf;comic=1;" parent="Co6emxiKnrxvNXTTKmmr-1" vertex="1">
          <mxGeometry x="-540" y="30" width="270" height="78" as="geometry" />
        </mxCell>
        <mxCell id="OpwPwvEnd3jWnngs8sU8-80" value="+ eventPublisherService: EventPublisherService" style="text;strokeColor=#666666;fillColor=#f5f5f5;align=left;verticalAlign=top;spacingLeft=4;spacingRight=4;overflow=hidden;rotatable=0;points=[[0,0.5],[1,0.5]];portConstraint=eastwest;fontStyle=0;fontColor=#333333;comic=1;" parent="OpwPwvEnd3jWnngs8sU8-79" vertex="1">
          <mxGeometry y="26" width="270" height="26" as="geometry" />
        </mxCell>
        <mxCell id="OpwPwvEnd3jWnngs8sU8-81" value="+ consumeEvent(Event event): void" style="text;strokeColor=#9673a6;fillColor=#e1d5e7;align=left;verticalAlign=top;spacingLeft=4;spacingRight=4;overflow=hidden;rotatable=0;points=[[0,0.5],[1,0.5]];portConstraint=eastwest;comic=1;" parent="OpwPwvEnd3jWnngs8sU8-79" vertex="1">
          <mxGeometry y="52" width="270" height="26" as="geometry" />
        </mxCell>
        <mxCell id="OpwPwvEnd3jWnngs8sU8-89" style="edgeStyle=orthogonalEdgeStyle;rounded=0;comic=1;orthogonalLoop=1;jettySize=auto;html=1;entryX=0;entryY=0.25;entryDx=0;entryDy=0;dashed=1;startSize=26;endArrow=block;endFill=0;fontSize=14;strokeWidth=2;" parent="Co6emxiKnrxvNXTTKmmr-1" target="OpwPwvEnd3jWnngs8sU8-22" edge="1">
          <mxGeometry relative="1" as="geometry">
            <mxPoint x="-270" y="220" as="sourcePoint" />
            <Array as="points">
              <mxPoint x="30" y="220" />
              <mxPoint x="30" y="87" />
            </Array>
          </mxGeometry>
        </mxCell>
        <mxCell id="OpwPwvEnd3jWnngs8sU8-82" value="CustCatSpringEventDataExample" style="swimlane;fontStyle=1;align=center;verticalAlign=top;childLayout=stackLayout;horizontal=1;startSize=26;horizontalStack=0;resizeParent=1;resizeParentMax=0;resizeLast=0;collapsible=1;marginBottom=0;fontSize=14;fillColor=#dae8fc;strokeColor=#6c8ebf;comic=1;" parent="Co6emxiKnrxvNXTTKmmr-1" vertex="1">
          <mxGeometry x="-560" y="210" width="290" height="104" as="geometry" />
        </mxCell>
        <mxCell id="OpwPwvEnd3jWnngs8sU8-83" value="+ event: Event" style="text;strokeColor=#666666;fillColor=#f5f5f5;align=left;verticalAlign=top;spacingLeft=4;spacingRight=4;overflow=hidden;rotatable=0;points=[[0,0.5],[1,0.5]];portConstraint=eastwest;fontStyle=0;fontColor=#333333;comic=1;" parent="OpwPwvEnd3jWnngs8sU8-82" vertex="1">
          <mxGeometry y="26" width="290" height="26" as="geometry" />
        </mxCell>
        <mxCell id="OpwPwvEnd3jWnngs8sU8-85" value="+ session: UserSession" style="text;strokeColor=#666666;fillColor=#f5f5f5;align=left;verticalAlign=top;spacingLeft=4;spacingRight=4;overflow=hidden;rotatable=0;points=[[0,0.5],[1,0.5]];portConstraint=eastwest;fontStyle=0;fontColor=#333333;comic=1;" parent="OpwPwvEnd3jWnngs8sU8-82" vertex="1">
          <mxGeometry y="52" width="290" height="26" as="geometry" />
        </mxCell>
        <mxCell id="OpwPwvEnd3jWnngs8sU8-86" value="+ size: int" style="text;strokeColor=#666666;fillColor=#f5f5f5;align=left;verticalAlign=top;spacingLeft=4;spacingRight=4;overflow=hidden;rotatable=0;points=[[0,0.5],[1,0.5]];portConstraint=eastwest;fontStyle=0;fontColor=#333333;comic=1;" parent="OpwPwvEnd3jWnngs8sU8-82" vertex="1">
          <mxGeometry y="78" width="290" height="26" as="geometry" />
        </mxCell>
        <mxCell id="OpwPwvEnd3jWnngs8sU8-90" style="edgeStyle=orthogonalEdgeStyle;rounded=0;comic=1;orthogonalLoop=1;jettySize=auto;html=1;exitX=1;exitY=0.5;exitDx=0;exitDy=0;entryX=0;entryY=0.25;entryDx=0;entryDy=0;dashed=1;startSize=26;endArrow=diamondThin;endFill=0;fontSize=14;jumpSize=8;strokeWidth=2;" parent="Co6emxiKnrxvNXTTKmmr-1" source="OpwPwvEnd3jWnngs8sU8-80" target="OpwPwvEnd3jWnngs8sU8-5" edge="1">
          <mxGeometry relative="1" as="geometry">
            <Array as="points">
              <mxPoint x="40" y="69" />
              <mxPoint x="40" y="535" />
            </Array>
          </mxGeometry>
        </mxCell>
      </root>
    </mxGraphModel>
  </diagram>
  <diagram id="EE_JcrPLt_BR_QPKVc0e" name="schéma detaillé">
    <mxGraphModel dx="1050" dy="511" grid="1" gridSize="10" guides="1" tooltips="1" connect="1" arrows="1" fold="1" page="1" pageScale="1" pageWidth="827" pageHeight="1169" math="0" shadow="0">
      <root>
        <mxCell id="4rvaiBN1-Ow3VZEla_yH-0" />
        <mxCell id="4rvaiBN1-Ow3VZEla_yH-1" parent="4rvaiBN1-Ow3VZEla_yH-0" />
        <mxCell id="aNpT59T1uVsxi9v_cgoB-1" value="" style="endArrow=none;html=1;entryX=0.5;entryY=1;entryDx=0;entryDy=0;" parent="4rvaiBN1-Ow3VZEla_yH-1" edge="1">
          <mxGeometry width="50" height="50" relative="1" as="geometry">
            <mxPoint x="1090" y="890" as="sourcePoint" />
            <mxPoint x="1087.0000000000005" y="100" as="targetPoint" />
          </mxGeometry>
        </mxCell>
        <mxCell id="muat7S14lQZmDtNwSSyC-61" value="" style="endArrow=none;dashed=1;html=1;fontSize=14;entryX=-0.447;entryY=0.683;entryDx=0;entryDy=0;entryPerimeter=0;exitX=0;exitY=0.699;exitDx=0;exitDy=0;exitPerimeter=0;" parent="4rvaiBN1-Ow3VZEla_yH-1" edge="1">
          <mxGeometry width="50" height="50" relative="1" as="geometry">
            <mxPoint x="290" y="595.3699999999999" as="sourcePoint" />
            <mxPoint x="575.5299999999997" y="594.8000000000002" as="targetPoint" />
          </mxGeometry>
        </mxCell>
        <mxCell id="muat7S14lQZmDtNwSSyC-60" value="" style="endArrow=none;dashed=1;html=1;fontSize=14;entryX=-0.388;entryY=1.054;entryDx=0;entryDy=0;entryPerimeter=0;exitX=1.171;exitY=0.64;exitDx=0;exitDy=0;exitPerimeter=0;" parent="4rvaiBN1-Ow3VZEla_yH-1" edge="1">
          <mxGeometry width="50" height="50" relative="1" as="geometry">
            <mxPoint x="580.29" y="588" as="sourcePoint" />
            <mxPoint x="829.6999999999998" y="588.1600000000001" as="targetPoint" />
          </mxGeometry>
        </mxCell>
        <mxCell id="muat7S14lQZmDtNwSSyC-14" value="" style="rounded=0;whiteSpace=wrap;html=1;" parent="4rvaiBN1-Ow3VZEla_yH-1" vertex="1">
          <mxGeometry x="580" y="190" width="10" height="410" as="geometry" />
        </mxCell>
        <mxCell id="4rvaiBN1-Ow3VZEla_yH-2" value="EventService" style="rounded=0;whiteSpace=wrap;html=1;" parent="4rvaiBN1-Ow3VZEla_yH-1" vertex="1">
          <mxGeometry x="500" y="40" width="170" height="60" as="geometry" />
        </mxCell>
        <mxCell id="4rvaiBN1-Ow3VZEla_yH-3" value="" style="endArrow=none;html=1;entryX=0.5;entryY=1;entryDx=0;entryDy=0;" parent="4rvaiBN1-Ow3VZEla_yH-1" source="muat7S14lQZmDtNwSSyC-14" target="4rvaiBN1-Ow3VZEla_yH-2" edge="1">
          <mxGeometry width="50" height="50" relative="1" as="geometry">
            <mxPoint x="585" y="1100" as="sourcePoint" />
            <mxPoint x="620" y="90" as="targetPoint" />
          </mxGeometry>
        </mxCell>
        <mxCell id="muat7S14lQZmDtNwSSyC-0" value="EventPublisherService" style="rounded=0;whiteSpace=wrap;html=1;" parent="4rvaiBN1-Ow3VZEla_yH-1" vertex="1">
          <mxGeometry x="730" y="40" width="190" height="60" as="geometry" />
        </mxCell>
        <mxCell id="muat7S14lQZmDtNwSSyC-1" value="" style="endArrow=none;html=1;entryX=0.5;entryY=1;entryDx=0;entryDy=0;" parent="4rvaiBN1-Ow3VZEla_yH-1" source="muat7S14lQZmDtNwSSyC-18" edge="1">
          <mxGeometry width="50" height="50" relative="1" as="geometry">
            <mxPoint x="830" y="1100" as="sourcePoint" />
            <mxPoint x="830" y="100" as="targetPoint" />
          </mxGeometry>
        </mxCell>
        <mxCell id="muat7S14lQZmDtNwSSyC-2" value="ConsumerTaskService" style="rounded=0;whiteSpace=wrap;html=1;" parent="4rvaiBN1-Ow3VZEla_yH-1" vertex="1">
          <mxGeometry x="990" y="40" width="190" height="60" as="geometry" />
        </mxCell>
        <mxCell id="muat7S14lQZmDtNwSSyC-4" value="&lt;div&gt;Webservice&lt;/div&gt;" style="rounded=0;whiteSpace=wrap;html=1;" parent="4rvaiBN1-Ow3VZEla_yH-1" vertex="1">
          <mxGeometry x="210" y="40" width="170" height="60" as="geometry" />
        </mxCell>
        <mxCell id="muat7S14lQZmDtNwSSyC-6" value="" style="endArrow=none;html=1;entryX=0.5;entryY=1;entryDx=0;entryDy=0;" parent="4rvaiBN1-Ow3VZEla_yH-1" source="muat7S14lQZmDtNwSSyC-9" edge="1">
          <mxGeometry width="50" height="50" relative="1" as="geometry">
            <mxPoint x="294.5" y="1100" as="sourcePoint" />
            <mxPoint x="294.5" y="100" as="targetPoint" />
          </mxGeometry>
        </mxCell>
        <mxCell id="muat7S14lQZmDtNwSSyC-9" value="" style="rounded=0;whiteSpace=wrap;html=1;" parent="4rvaiBN1-Ow3VZEla_yH-1" vertex="1">
          <mxGeometry x="290" y="158" width="10" height="450" as="geometry" />
        </mxCell>
        <mxCell id="muat7S14lQZmDtNwSSyC-10" value="" style="endArrow=none;html=1;entryX=0.5;entryY=1;entryDx=0;entryDy=0;" parent="4rvaiBN1-Ow3VZEla_yH-1" target="muat7S14lQZmDtNwSSyC-9" edge="1">
          <mxGeometry width="50" height="50" relative="1" as="geometry">
            <mxPoint x="295" y="890" as="sourcePoint" />
            <mxPoint x="294.5" y="100" as="targetPoint" />
          </mxGeometry>
        </mxCell>
        <mxCell id="muat7S14lQZmDtNwSSyC-15" value="" style="endArrow=none;html=1;entryX=0.5;entryY=1;entryDx=0;entryDy=0;" parent="4rvaiBN1-Ow3VZEla_yH-1" target="muat7S14lQZmDtNwSSyC-14" edge="1">
          <mxGeometry width="50" height="50" relative="1" as="geometry">
            <mxPoint x="585" y="890" as="sourcePoint" />
            <mxPoint x="585" y="100" as="targetPoint" />
          </mxGeometry>
        </mxCell>
        <mxCell id="muat7S14lQZmDtNwSSyC-16" value="&lt;div&gt;eventService.consumeEvent()&lt;/div&gt;" style="text;html=1;align=center;verticalAlign=middle;resizable=0;points=[];autosize=1;" parent="4rvaiBN1-Ow3VZEla_yH-1" vertex="1">
          <mxGeometry x="345" y="213" width="180" height="30" as="geometry" />
        </mxCell>
        <mxCell id="muat7S14lQZmDtNwSSyC-17" style="edgeStyle=orthogonalEdgeStyle;rounded=0;orthogonalLoop=1;jettySize=auto;html=1;" parent="4rvaiBN1-Ow3VZEla_yH-1" edge="1">
          <mxGeometry relative="1" as="geometry">
            <mxPoint x="300" y="239" as="sourcePoint" />
            <mxPoint x="585" y="239" as="targetPoint" />
            <Array as="points">
              <mxPoint x="576" y="239" />
            </Array>
          </mxGeometry>
        </mxCell>
        <mxCell id="muat7S14lQZmDtNwSSyC-18" value="" style="rounded=0;whiteSpace=wrap;html=1;" parent="4rvaiBN1-Ow3VZEla_yH-1" vertex="1">
          <mxGeometry x="825" y="212" width="10" height="388" as="geometry" />
        </mxCell>
        <mxCell id="muat7S14lQZmDtNwSSyC-19" value="" style="endArrow=none;html=1;entryX=0.5;entryY=1;entryDx=0;entryDy=0;" parent="4rvaiBN1-Ow3VZEla_yH-1" target="muat7S14lQZmDtNwSSyC-18" edge="1">
          <mxGeometry width="50" height="50" relative="1" as="geometry">
            <mxPoint x="830" y="890" as="sourcePoint" />
            <mxPoint x="830" y="100" as="targetPoint" />
          </mxGeometry>
        </mxCell>
        <mxCell id="muat7S14lQZmDtNwSSyC-20" value="" style="html=1;points=[];perimeter=orthogonalPerimeter;" parent="4rvaiBN1-Ow3VZEla_yH-1" vertex="1">
          <mxGeometry x="585" y="270" width="10" height="40" as="geometry" />
        </mxCell>
        <mxCell id="muat7S14lQZmDtNwSSyC-21" value="&lt;div&gt;build &lt;br&gt;&lt;/div&gt;&lt;div&gt;Event data&lt;br&gt;&lt;/div&gt;" style="edgeStyle=orthogonalEdgeStyle;html=1;align=left;spacingLeft=2;endArrow=block;rounded=0;entryX=1;entryY=0;" parent="4rvaiBN1-Ow3VZEla_yH-1" target="muat7S14lQZmDtNwSSyC-20" edge="1">
          <mxGeometry relative="1" as="geometry">
            <mxPoint x="590" y="250" as="sourcePoint" />
            <Array as="points">
              <mxPoint x="615" y="250" />
            </Array>
          </mxGeometry>
        </mxCell>
        <mxCell id="muat7S14lQZmDtNwSSyC-22" value="" style="html=1;points=[];perimeter=orthogonalPerimeter;" parent="4rvaiBN1-Ow3VZEla_yH-1" vertex="1">
          <mxGeometry x="585" y="350" width="10" height="40" as="geometry" />
        </mxCell>
        <mxCell id="muat7S14lQZmDtNwSSyC-23" value="&lt;div&gt;build &lt;br&gt;&lt;/div&gt;&lt;div&gt;Consumer&lt;/div&gt;" style="edgeStyle=orthogonalEdgeStyle;html=1;align=left;spacingLeft=2;endArrow=block;rounded=0;entryX=1;entryY=0;" parent="4rvaiBN1-Ow3VZEla_yH-1" target="muat7S14lQZmDtNwSSyC-22" edge="1">
          <mxGeometry relative="1" as="geometry">
            <mxPoint x="590" y="330" as="sourcePoint" />
            <Array as="points">
              <mxPoint x="615" y="330" />
            </Array>
          </mxGeometry>
        </mxCell>
        <mxCell id="muat7S14lQZmDtNwSSyC-24" value="" style="html=1;points=[];perimeter=orthogonalPerimeter;" parent="4rvaiBN1-Ow3VZEla_yH-1" vertex="1">
          <mxGeometry x="585" y="350" width="10" height="40" as="geometry" />
        </mxCell>
        <mxCell id="muat7S14lQZmDtNwSSyC-25" value="&lt;div&gt;build &lt;br&gt;&lt;/div&gt;&lt;div&gt;Consumer&lt;/div&gt;" style="edgeStyle=orthogonalEdgeStyle;html=1;align=left;spacingLeft=2;endArrow=block;rounded=0;entryX=1;entryY=0;" parent="4rvaiBN1-Ow3VZEla_yH-1" target="muat7S14lQZmDtNwSSyC-24" edge="1">
          <mxGeometry relative="1" as="geometry">
            <mxPoint x="590" y="330" as="sourcePoint" />
            <Array as="points">
              <mxPoint x="615" y="330" />
            </Array>
          </mxGeometry>
        </mxCell>
        <mxCell id="muat7S14lQZmDtNwSSyC-30" value="" style="html=1;points=[];perimeter=orthogonalPerimeter;" parent="4rvaiBN1-Ow3VZEla_yH-1" vertex="1">
          <mxGeometry x="585" y="430" width="10" height="40" as="geometry" />
        </mxCell>
        <mxCell id="muat7S14lQZmDtNwSSyC-31" value="&lt;div&gt;build &lt;br&gt;&lt;/div&gt;&lt;div&gt;Consumer&lt;/div&gt;" style="edgeStyle=orthogonalEdgeStyle;html=1;align=left;spacingLeft=2;endArrow=block;rounded=0;entryX=1;entryY=0;" parent="4rvaiBN1-Ow3VZEla_yH-1" target="muat7S14lQZmDtNwSSyC-30" edge="1">
          <mxGeometry relative="1" as="geometry">
            <mxPoint x="590" y="410" as="sourcePoint" />
            <Array as="points">
              <mxPoint x="615" y="410" />
            </Array>
          </mxGeometry>
        </mxCell>
        <mxCell id="muat7S14lQZmDtNwSSyC-32" value="" style="html=1;points=[];perimeter=orthogonalPerimeter;" parent="4rvaiBN1-Ow3VZEla_yH-1" vertex="1">
          <mxGeometry x="585" y="430" width="10" height="40" as="geometry" />
        </mxCell>
        <mxCell id="muat7S14lQZmDtNwSSyC-33" value="&lt;div&gt;build &lt;br&gt;&lt;/div&gt;&lt;div&gt;ConsumerEvent&lt;/div&gt;" style="edgeStyle=orthogonalEdgeStyle;html=1;align=left;spacingLeft=2;endArrow=block;rounded=0;entryX=1;entryY=0;" parent="4rvaiBN1-Ow3VZEla_yH-1" target="muat7S14lQZmDtNwSSyC-32" edge="1">
          <mxGeometry relative="1" as="geometry">
            <mxPoint x="590" y="410" as="sourcePoint" />
            <Array as="points">
              <mxPoint x="615" y="410" />
            </Array>
          </mxGeometry>
        </mxCell>
        <mxCell id="muat7S14lQZmDtNwSSyC-34" value="eventPublisherService.publish()" style="text;html=1;align=center;verticalAlign=middle;resizable=0;points=[];autosize=1;" parent="4rvaiBN1-Ow3VZEla_yH-1" vertex="1">
          <mxGeometry x="610" y="478" width="190" height="20" as="geometry" />
        </mxCell>
        <mxCell id="muat7S14lQZmDtNwSSyC-35" style="edgeStyle=orthogonalEdgeStyle;rounded=0;orthogonalLoop=1;jettySize=auto;html=1;" parent="4rvaiBN1-Ow3VZEla_yH-1" edge="1">
          <mxGeometry relative="1" as="geometry">
            <mxPoint x="590" y="499.4" as="sourcePoint" />
            <mxPoint x="820" y="500" as="targetPoint" />
            <Array as="points">
              <mxPoint x="800" y="500" />
              <mxPoint x="800" y="500" />
            </Array>
          </mxGeometry>
        </mxCell>
        <mxCell id="muat7S14lQZmDtNwSSyC-41" value="OPT" style="shape=umlFrame;whiteSpace=wrap;html=1;align=left;fillColor=#ffe6cc;strokeColor=#d79b00;" parent="4rvaiBN1-Ow3VZEla_yH-1" vertex="1">
          <mxGeometry x="840" y="610" width="440" height="260" as="geometry" />
        </mxCell>
        <mxCell id="muat7S14lQZmDtNwSSyC-42" value="&lt;div&gt;après le commit&lt;/div&gt;&lt;div&gt;si event.readyToPublish = true&lt;/div&gt;" style="text;html=1;align=left;verticalAlign=middle;resizable=0;points=[];autosize=1;fontStyle=1;fontSize=14;fillColor=#ffe6cc;strokeColor=#d79b00;" parent="4rvaiBN1-Ow3VZEla_yH-1" vertex="1">
          <mxGeometry x="847" y="660" width="230" height="40" as="geometry" />
        </mxCell>
        <mxCell id="muat7S14lQZmDtNwSSyC-50" value="" style="html=1;points=[];perimeter=orthogonalPerimeter;fontSize=14;align=left;" parent="4rvaiBN1-Ow3VZEla_yH-1" vertex="1">
          <mxGeometry x="830" y="550" width="10" height="26" as="geometry" />
        </mxCell>
        <mxCell id="muat7S14lQZmDtNwSSyC-51" value="&lt;font style=&quot;font-size: 15px&quot;&gt;publish&lt;/font&gt;&lt;font style=&quot;font-size: 15px&quot;&gt;(event)&lt;/font&gt;" style="edgeStyle=orthogonalEdgeStyle;html=1;align=left;spacingLeft=2;endArrow=block;rounded=0;entryX=1;entryY=0;fontSize=14;" parent="4rvaiBN1-Ow3VZEla_yH-1" source="muat7S14lQZmDtNwSSyC-18" target="muat7S14lQZmDtNwSSyC-50" edge="1">
          <mxGeometry relative="1" as="geometry">
            <mxPoint x="1095" y="534" as="sourcePoint" />
            <Array as="points">
              <mxPoint x="860" y="534" />
              <mxPoint x="860" y="550" />
            </Array>
          </mxGeometry>
        </mxCell>
        <mxCell id="muat7S14lQZmDtNwSSyC-58" value="" style="rounded=0;whiteSpace=wrap;html=1;" parent="4rvaiBN1-Ow3VZEla_yH-1" vertex="1">
          <mxGeometry x="1085" y="620" width="10" height="230" as="geometry" />
        </mxCell>
        <mxCell id="muat7S14lQZmDtNwSSyC-46" value="" style="html=1;points=[];perimeter=orthogonalPerimeter;fontSize=14;align=left;" parent="4rvaiBN1-Ow3VZEla_yH-1" vertex="1">
          <mxGeometry x="1090" y="650" width="10" height="40" as="geometry" />
        </mxCell>
        <mxCell id="muat7S14lQZmDtNwSSyC-47" value="&lt;pre style=&quot;background-color: #2b2b2b ; color: #a9b7c6 ; font-family: &amp;#34;courier new&amp;#34; ; font-size: 9 0pt&quot;&gt;&lt;span style=&quot;color: #ffc66d&quot;&gt;handler(event)&lt;/span&gt;&lt;/pre&gt;" style="edgeStyle=orthogonalEdgeStyle;html=1;align=left;spacingLeft=2;endArrow=block;rounded=0;entryX=1;entryY=0;fontSize=14;" parent="4rvaiBN1-Ow3VZEla_yH-1" target="muat7S14lQZmDtNwSSyC-46" edge="1">
          <mxGeometry relative="1" as="geometry">
            <mxPoint x="1095" y="630" as="sourcePoint" />
            <Array as="points">
              <mxPoint x="1120" y="630" />
            </Array>
          </mxGeometry>
        </mxCell>
        <mxCell id="muat7S14lQZmDtNwSSyC-55" value="" style="html=1;points=[];perimeter=orthogonalPerimeter;fontSize=14;align=left;" parent="4rvaiBN1-Ow3VZEla_yH-1" vertex="1">
          <mxGeometry x="1090" y="740" width="10" height="40" as="geometry" />
        </mxCell>
        <mxCell id="muat7S14lQZmDtNwSSyC-56" value="executeTask" style="edgeStyle=orthogonalEdgeStyle;html=1;align=left;spacingLeft=2;endArrow=block;rounded=0;entryX=1;entryY=0;fontSize=14;" parent="4rvaiBN1-Ow3VZEla_yH-1" target="muat7S14lQZmDtNwSSyC-55" edge="1">
          <mxGeometry relative="1" as="geometry">
            <mxPoint x="1095" y="720" as="sourcePoint" />
            <Array as="points">
              <mxPoint x="1120" y="720" />
            </Array>
          </mxGeometry>
        </mxCell>
        <mxCell id="muat7S14lQZmDtNwSSyC-64" value="return void" style="text;html=1;align=center;verticalAlign=middle;resizable=0;points=[];autosize=1;fontSize=14;" parent="4rvaiBN1-Ow3VZEla_yH-1" vertex="1">
          <mxGeometry x="590" y="565" width="80" height="20" as="geometry" />
        </mxCell>
        <mxCell id="muat7S14lQZmDtNwSSyC-66" value="return event" style="text;html=1;align=center;verticalAlign=middle;resizable=0;points=[];autosize=1;fontSize=14;" parent="4rvaiBN1-Ow3VZEla_yH-1" vertex="1">
          <mxGeometry x="310" y="575" width="90" height="20" as="geometry" />
        </mxCell>
      </root>
    </mxGraphModel>
  </diagram>
</mxfile>
